<?xml version="1.0" standalone="no"?>
<!DOCTYPE svg PUBLIC "-//W3C//DTD SVG 20010904//EN"
 "http://www.w3.org/TR/2001/REC-SVG-20010904/DTD/svg10.dtd">
<svg version="1.0" xmlns="http://www.w3.org/2000/svg"
 width="500.000000pt" height="500.000000pt" viewBox="0 0 500.000000 500.000000"
 preserveAspectRatio="xMidYMid meet">

<g transform="translate(0.000000,500.000000) scale(0.100000,-0.100000)"
fill="#000000" stroke="none">
<path d="M2335 2958 c-6 -20 -95 -769 -95 -800 l0 -28 99 0 c55 0 102 4 105 8
3 5 12 64 20 133 9 68 18 139 21 157 l6 32 69 0 69 0 7 58 c4 31 7 73 8 92 l1
35 -68 3 -67 3 6 42 c12 95 0 87 134 87 65 0 121 4 124 9 3 5 9 47 12 95 l7
86 -227 0 c-172 0 -228 -3 -231 -12z"/>
<path d="M2840 2965 c0 -3 -23 -188 -50 -412 -28 -224 -47 -410 -42 -415 5 -5
109 -7 233 -6 l224 3 11 85 c6 47 9 88 7 93 -2 4 -58 7 -124 7 -107 0 -119 2
-119 18 0 9 16 145 35 302 19 157 35 295 35 308 0 21 -3 22 -105 22 -58 0
-105 -2 -105 -5z"/>
<path d="M3360 2965 c0 -3 -23 -188 -50 -411 -28 -223 -48 -410 -44 -415 3 -5
104 -9 225 -9 254 0 231 -11 244 118 l7 72 -122 0 -123 0 7 62 c4 34 10 66 12
70 3 4 34 8 69 8 35 0 66 4 69 8 2 4 8 47 12 95 l7 87 -67 0 c-74 0 -72 -3
-60 84 l7 46 122 0 123 0 5 33 c4 17 9 60 13 95 l7 62 -232 0 c-127 0 -231 -2
-231 -5z"/>
<path d="M3880 2965 c0 -3 -23 -188 -50 -411 -28 -223 -48 -410 -44 -415 3 -5
104 -9 225 -9 254 0 231 -11 244 118 l7 72 -122 0 -123 0 7 62 c4 34 10 66 12
70 3 4 34 8 69 8 35 0 66 4 69 8 2 4 8 47 12 95 l7 87 -67 0 c-74 0 -72 -3
-60 84 l7 46 122 0 123 0 5 33 c4 17 9 60 13 95 l7 62 -232 0 c-127 0 -231 -2
-231 -5z"/>
<path d="M4387 2948 c-3 -13 -9 -56 -13 -95 l-7 -73 77 0 c69 0 76 -2 76 -20
0 -10 -16 -148 -35 -304 -19 -157 -35 -294 -35 -306 0 -19 6 -20 99 -20 55 0
103 4 106 10 4 7 84 604 85 638 0 1 36 2 79 2 91 0 85 -7 97 118 l7 72 -266 0
-265 0 -5 -22z"/>
</g>
</svg>
